<svg viewBox="0 0 24 24" xmlns="http://www.w3.org/2000/svg"><path d="m22.26465 2.42773a2.04837 2.04837 0 0 0 -2.07813-.32421l-17.9209 7.23535a2.043 2.043 0 0 0 .1045 3.81836l3.625 1.26074 2.0205 6.68164a.998.998 0 0 0 .11838.25239c.00775.012.01868.02093.02692.03259a.98844.98844 0 0 0 .21143.21576c.02307.01758.04516.03406.06982.04968a.98592.98592 0 0 0 .31073.13611l.01184.001.00671.00287a1.02183 1.02183 0 0 0 .20215.02051c.00653 0 .01233-.00312.0188-.00324a.99255.99255 0 0 0 .30109-.05231c.02258-.00769.04193-.02056.06384-.02984a.9931.9931 0 0 0 .20429-.11456 250.75993 250.75993 0 0 1 .15222-.12818l2.70216-2.98339 4.03027 3.12207a2.02322 2.02322 0 0 0 1.24121.42676 2.05413 2.05413 0 0 0 2.00783-1.63283l3.26269-16.01656a2.02966 2.02966 0 0 0 -.69335-1.97071zm-12.89453 12.3086a.99357.99357 0 0 0 -.27246.50586l-.30951 1.504-.78406-2.59307 4.06525-2.11695zm8.30176 5.30367-4.7627-3.68945a1.00134 1.00134 0 0 0 -1.35352.11914l-.86541.9552.30584-1.48645 7.083-7.083a.99975.99975 0 0 0 -1.16894-1.59375l-10.16528 5.29263-3.72436-1.36291 17.97849-7.19241z"/></svg>